<svg id="visual" viewBox="0 0 900 600" width="900" height="600" xmlns="http://www.w3.org/2000/svg" xmlns:xlink="http://www.w3.org/1999/xlink" version="1.1"><g stroke-width="1" stroke-linejoin="bevel"><path d="M490 294L563 263L535 234Z" fill="#0c2435" stroke="#0c2435"></path><path d="M563 263L572 206L535 234Z" fill="#1d4e6b" stroke="#1d4e6b"></path><path d="M461 134L431 195L535 234Z" fill="#1d4e6b" stroke="#1d4e6b"></path><path d="M535 234L431 195L490 294Z" fill="#205a7a" stroke="#205a7a"></path><path d="M431 195L386 271L490 294Z" fill="#081a28" stroke="#081a28"></path><path d="M409 421L530 415L490 294Z" fill="#19435d" stroke="#19435d"></path><path d="M490 294L600 400L563 263Z" fill="#246688" stroke="#246688"></path><path d="M530 415L600 400L490 294Z" fill="#1d4e6b" stroke="#1d4e6b"></path><path d="M563 263L704 202L572 206Z" fill="#15384f" stroke="#15384f"></path><path d="M572 206L461 134L535 234Z" fill="#1d4e6b" stroke="#1d4e6b"></path><path d="M431 195L331 166L386 271Z" fill="#1d4e6b" stroke="#1d4e6b"></path><path d="M600 400L685 322L563 263Z" fill="#205a7a" stroke="#205a7a"></path><path d="M386 271L409 421L490 294Z" fill="#205a7a" stroke="#205a7a"></path><path d="M685 322L704 202L563 263Z" fill="#297ea6" stroke="#297ea6"></path><path d="M572 206L590 66L461 134Z" fill="#297ea6" stroke="#297ea6"></path><path d="M464 0L404 114L461 134Z" fill="#112e42" stroke="#112e42"></path><path d="M461 134L404 114L431 195Z" fill="#0c2435" stroke="#0c2435"></path><path d="M409 421L488 471L530 415Z" fill="#246688" stroke="#246688"></path><path d="M530 415L627 476L600 400Z" fill="#205a7a" stroke="#205a7a"></path><path d="M600 400L690 394L685 322Z" fill="#1d4e6b" stroke="#1d4e6b"></path><path d="M685 322L764 219L704 202Z" fill="#297ea6" stroke="#297ea6"></path><path d="M627 476L690 394L600 400Z" fill="#1d4e6b" stroke="#1d4e6b"></path><path d="M682 110L590 66L572 206Z" fill="#205a7a" stroke="#205a7a"></path><path d="M404 114L331 166L431 195Z" fill="#15384f" stroke="#15384f"></path><path d="M386 271L290 421L409 421Z" fill="#205a7a" stroke="#205a7a"></path><path d="M704 202L682 110L572 206Z" fill="#0c2435" stroke="#0c2435"></path><path d="M488 471L627 476L530 415Z" fill="#112e42" stroke="#112e42"></path><path d="M783 325L764 219L685 322Z" fill="#1d4e6b" stroke="#1d4e6b"></path><path d="M704 202L764 219L682 110Z" fill="#0c2435" stroke="#0c2435"></path><path d="M331 166L265 273L386 271Z" fill="#19435d" stroke="#19435d"></path><path d="M788 371L783 325L685 322Z" fill="#0c2435" stroke="#0c2435"></path><path d="M788 371L685 322L690 394Z" fill="#19435d" stroke="#19435d"></path><path d="M265 273L290 421L386 271Z" fill="#112e42" stroke="#112e42"></path><path d="M409 421L410 537L488 471Z" fill="#081a28" stroke="#081a28"></path><path d="M590 66L464 0L461 134Z" fill="#0c2435" stroke="#0c2435"></path><path d="M404 114L319 77L331 166Z" fill="#081a28" stroke="#081a28"></path><path d="M633 0L464 0L590 66Z" fill="#1d4e6b" stroke="#1d4e6b"></path><path d="M798 487L788 371L690 394Z" fill="#00101c" stroke="#00101c"></path><path d="M410 0L319 77L404 114Z" fill="#297ea6" stroke="#297ea6"></path><path d="M331 166L221 160L265 273Z" fill="#081a28" stroke="#081a28"></path><path d="M286 508L410 537L409 421Z" fill="#0c2435" stroke="#0c2435"></path><path d="M488 471L536 600L627 476Z" fill="#246688" stroke="#246688"></path><path d="M722 0L633 0L682 110Z" fill="#00101c" stroke="#00101c"></path><path d="M682 110L633 0L590 66Z" fill="#112e42" stroke="#112e42"></path><path d="M464 0L410 0L404 114Z" fill="#0c2435" stroke="#0c2435"></path><path d="M265 273L225 321L290 421Z" fill="#205a7a" stroke="#205a7a"></path><path d="M132 276L225 321L265 273Z" fill="#081a28" stroke="#081a28"></path><path d="M617 600L711 523L627 476Z" fill="#0c2435" stroke="#0c2435"></path><path d="M627 476L711 523L690 394Z" fill="#15384f" stroke="#15384f"></path><path d="M238 119L221 160L331 166Z" fill="#19435d" stroke="#19435d"></path><path d="M319 77L238 119L331 166Z" fill="#0c2435" stroke="#0c2435"></path><path d="M205 0L238 119L319 77Z" fill="#205a7a" stroke="#205a7a"></path><path d="M410 537L536 600L488 471Z" fill="#19435d" stroke="#19435d"></path><path d="M290 421L286 508L409 421Z" fill="#00101c" stroke="#00101c"></path><path d="M410 537L421 600L536 600Z" fill="#297ea6" stroke="#297ea6"></path><path d="M166 538L286 508L290 421Z" fill="#246688" stroke="#246688"></path><path d="M769 0L722 0L682 110Z" fill="#297ea6" stroke="#297ea6"></path><path d="M132 276L200 370L225 321Z" fill="#246688" stroke="#246688"></path><path d="M225 321L200 370L290 421Z" fill="#19435d" stroke="#19435d"></path><path d="M536 600L617 600L627 476Z" fill="#1d4e6b" stroke="#1d4e6b"></path><path d="M320 600L421 600L410 537Z" fill="#15384f" stroke="#15384f"></path><path d="M809 600L798 487L711 523Z" fill="#1d4e6b" stroke="#1d4e6b"></path><path d="M711 523L798 487L690 394Z" fill="#081a28" stroke="#081a28"></path><path d="M410 0L304 0L319 77Z" fill="#1d4e6b" stroke="#1d4e6b"></path><path d="M764 219L822 61L682 110Z" fill="#0c2435" stroke="#0c2435"></path><path d="M900 111L822 61L764 219Z" fill="#277297" stroke="#277297"></path><path d="M900 273L764 219L783 325Z" fill="#277297" stroke="#277297"></path><path d="M900 273L783 325L900 401Z" fill="#19435d" stroke="#19435d"></path><path d="M822 61L769 0L682 110Z" fill="#112e42" stroke="#112e42"></path><path d="M617 600L694 600L711 523Z" fill="#112e42" stroke="#112e42"></path><path d="M900 401L783 325L788 371Z" fill="#246688" stroke="#246688"></path><path d="M900 273L900 199L764 219Z" fill="#112e42" stroke="#112e42"></path><path d="M224 600L320 600L286 508Z" fill="#0c2435" stroke="#0c2435"></path><path d="M286 508L320 600L410 537Z" fill="#00101c" stroke="#00101c"></path><path d="M221 160L132 276L265 273Z" fill="#0c2435" stroke="#0c2435"></path><path d="M166 538L224 600L286 508Z" fill="#205a7a" stroke="#205a7a"></path><path d="M84 176L132 276L221 160Z" fill="#0c2435" stroke="#0c2435"></path><path d="M84 176L221 160L63 126Z" fill="#081a28" stroke="#081a28"></path><path d="M900 482L900 401L798 487Z" fill="#15384f" stroke="#15384f"></path><path d="M798 487L900 401L788 371Z" fill="#297ea6" stroke="#297ea6"></path><path d="M900 199L900 111L764 219Z" fill="#081a28" stroke="#081a28"></path><path d="M822 61L900 0L769 0Z" fill="#15384f" stroke="#15384f"></path><path d="M304 0L205 0L319 77Z" fill="#081a28" stroke="#081a28"></path><path d="M809 600L900 482L798 487Z" fill="#15384f" stroke="#15384f"></path><path d="M694 600L809 600L711 523Z" fill="#00101c" stroke="#00101c"></path><path d="M166 538L290 421L200 370Z" fill="#1d4e6b" stroke="#1d4e6b"></path><path d="M91 407L166 538L200 370Z" fill="#112e42" stroke="#112e42"></path><path d="M63 126L221 160L238 119Z" fill="#205a7a" stroke="#205a7a"></path><path d="M132 276L91 407L200 370Z" fill="#00101c" stroke="#00101c"></path><path d="M0 270L91 407L132 276Z" fill="#0c2435" stroke="#0c2435"></path><path d="M900 111L900 0L822 61Z" fill="#112e42" stroke="#112e42"></path><path d="M108 0L63 126L238 119Z" fill="#15384f" stroke="#15384f"></path><path d="M84 176L0 270L132 276Z" fill="#00101c" stroke="#00101c"></path><path d="M205 0L108 0L238 119Z" fill="#00101c" stroke="#00101c"></path><path d="M809 600L900 600L900 482Z" fill="#1d4e6b" stroke="#1d4e6b"></path><path d="M0 499L77 525L91 407Z" fill="#0c2435" stroke="#0c2435"></path><path d="M91 407L77 525L166 538Z" fill="#297ea6" stroke="#297ea6"></path><path d="M166 538L118 600L224 600Z" fill="#297ea6" stroke="#297ea6"></path><path d="M77 525L118 600L166 538Z" fill="#081a28" stroke="#081a28"></path><path d="M0 199L84 176L63 126Z" fill="#081a28" stroke="#081a28"></path><path d="M0 199L0 270L84 176Z" fill="#00101c" stroke="#00101c"></path><path d="M0 89L0 199L63 126Z" fill="#205a7a" stroke="#205a7a"></path><path d="M0 270L0 404L91 407Z" fill="#19435d" stroke="#19435d"></path><path d="M77 525L0 600L118 600Z" fill="#277297" stroke="#277297"></path><path d="M108 0L0 89L63 126Z" fill="#277297" stroke="#277297"></path><path d="M0 404L0 499L91 407Z" fill="#1d4e6b" stroke="#1d4e6b"></path><path d="M108 0L0 0L0 89Z" fill="#00101c" stroke="#00101c"></path><path d="M0 499L0 600L77 525Z" fill="#112e42" stroke="#112e42"></path></g></svg>