<svg id="visual" viewBox="0 0 900 600" width="900" height="600" xmlns="http://www.w3.org/2000/svg" xmlns:xlink="http://www.w3.org/1999/xlink" version="1.1"><g stroke-width="1" stroke-linejoin="bevel"><path d="M478 336L481 360L565 331Z" fill="#297ea6" stroke="#297ea6"></path><path d="M481 360L569 437L565 331Z" fill="#4689ae" stroke="#4689ae"></path><path d="M734 270L571 202L565 331Z" fill="#bed0de" stroke="#bed0de"></path><path d="M565 331L571 202L478 336Z" fill="#d1dde6" stroke="#d1dde6"></path><path d="M571 202L513 182L478 336Z" fill="#99b8ce" stroke="#99b8ce"></path><path d="M478 336L362 398L481 360Z" fill="#5e95b6" stroke="#5e95b6"></path><path d="M404 508L530 530L569 437Z" fill="#4689ae" stroke="#4689ae"></path><path d="M372 260L362 398L478 336Z" fill="#acc4d6" stroke="#acc4d6"></path><path d="M513 182L372 260L478 336Z" fill="#86acc6" stroke="#86acc6"></path><path d="M404 508L569 437L481 360Z" fill="#99b8ce" stroke="#99b8ce"></path><path d="M362 398L404 508L481 360Z" fill="#99b8ce" stroke="#99b8ce"></path><path d="M530 530L633 521L569 437Z" fill="#297ea6" stroke="#297ea6"></path><path d="M569 437L722 422L565 331Z" fill="#f6f6f6" stroke="#f6f6f6"></path><path d="M701 464L722 422L569 437Z" fill="#297ea6" stroke="#297ea6"></path><path d="M633 521L701 464L569 437Z" fill="#4689ae" stroke="#4689ae"></path><path d="M291 303L313 406L362 398Z" fill="#4689ae" stroke="#4689ae"></path><path d="M362 398L338 506L404 508Z" fill="#297ea6" stroke="#297ea6"></path><path d="M722 422L734 270L565 331Z" fill="#e3e9ee" stroke="#e3e9ee"></path><path d="M513 182L360 177L372 260Z" fill="#f6f6f6" stroke="#f6f6f6"></path><path d="M372 260L291 303L362 398Z" fill="#d1dde6" stroke="#d1dde6"></path><path d="M312 236L291 303L372 260Z" fill="#4689ae" stroke="#4689ae"></path><path d="M360 177L312 236L372 260Z" fill="#5e95b6" stroke="#5e95b6"></path><path d="M313 406L338 506L362 398Z" fill="#f6f6f6" stroke="#f6f6f6"></path><path d="M404 508L493 600L530 530Z" fill="#d1dde6" stroke="#d1dde6"></path><path d="M722 422L768 302L734 270Z" fill="#5e95b6" stroke="#5e95b6"></path><path d="M370 600L493 600L404 508Z" fill="#86acc6" stroke="#86acc6"></path><path d="M530 530L610 600L633 521Z" fill="#99b8ce" stroke="#99b8ce"></path><path d="M776 213L709 160L734 270Z" fill="#bed0de" stroke="#bed0de"></path><path d="M734 270L709 160L571 202Z" fill="#5e95b6" stroke="#5e95b6"></path><path d="M631 83L485 70L513 182Z" fill="#bed0de" stroke="#bed0de"></path><path d="M513 182L378 101L360 177Z" fill="#5e95b6" stroke="#5e95b6"></path><path d="M709 160L691 132L571 202Z" fill="#e3e9ee" stroke="#e3e9ee"></path><path d="M493 600L610 600L530 530Z" fill="#e3e9ee" stroke="#e3e9ee"></path><path d="M633 521L704 600L701 464Z" fill="#4689ae" stroke="#4689ae"></path><path d="M631 83L513 182L571 202Z" fill="#d1dde6" stroke="#d1dde6"></path><path d="M485 70L378 101L513 182Z" fill="#72a0be" stroke="#72a0be"></path><path d="M360 177L294 109L312 236Z" fill="#4689ae" stroke="#4689ae"></path><path d="M691 132L631 83L571 202Z" fill="#d1dde6" stroke="#d1dde6"></path><path d="M709 160L798 114L691 132Z" fill="#4689ae" stroke="#4689ae"></path><path d="M768 302L776 213L734 270Z" fill="#bed0de" stroke="#bed0de"></path><path d="M338 506L370 600L404 508Z" fill="#bed0de" stroke="#bed0de"></path><path d="M291 303L224 408L313 406Z" fill="#f6f6f6" stroke="#f6f6f6"></path><path d="M313 406L214 468L338 506Z" fill="#4689ae" stroke="#4689ae"></path><path d="M338 506L276 600L370 600Z" fill="#acc4d6" stroke="#acc4d6"></path><path d="M174 267L224 408L291 303Z" fill="#e3e9ee" stroke="#e3e9ee"></path><path d="M174 267L291 303L312 236Z" fill="#d1dde6" stroke="#d1dde6"></path><path d="M722 422L829 366L768 302Z" fill="#72a0be" stroke="#72a0be"></path><path d="M768 302L900 226L776 213Z" fill="#5e95b6" stroke="#5e95b6"></path><path d="M807 491L829 366L722 422Z" fill="#5e95b6" stroke="#5e95b6"></path><path d="M807 491L722 422L701 464Z" fill="#d1dde6" stroke="#d1dde6"></path><path d="M610 600L704 600L633 521Z" fill="#5e95b6" stroke="#5e95b6"></path><path d="M704 600L807 491L701 464Z" fill="#99b8ce" stroke="#99b8ce"></path><path d="M306 0L294 109L378 101Z" fill="#4689ae" stroke="#4689ae"></path><path d="M378 101L294 109L360 177Z" fill="#99b8ce" stroke="#99b8ce"></path><path d="M224 408L214 468L313 406Z" fill="#297ea6" stroke="#297ea6"></path><path d="M574 0L527 0L485 70Z" fill="#bed0de" stroke="#bed0de"></path><path d="M485 70L364 0L378 101Z" fill="#e3e9ee" stroke="#e3e9ee"></path><path d="M738 0L574 0L631 83Z" fill="#72a0be" stroke="#72a0be"></path><path d="M631 83L574 0L485 70Z" fill="#86acc6" stroke="#86acc6"></path><path d="M738 0L631 83L691 132Z" fill="#99b8ce" stroke="#99b8ce"></path><path d="M294 109L211 179L312 236Z" fill="#99b8ce" stroke="#99b8ce"></path><path d="M224 408L68 372L214 468Z" fill="#d1dde6" stroke="#d1dde6"></path><path d="M214 468L276 600L338 506Z" fill="#acc4d6" stroke="#acc4d6"></path><path d="M211 179L174 267L312 236Z" fill="#bed0de" stroke="#bed0de"></path><path d="M900 226L798 114L776 213Z" fill="#f6f6f6" stroke="#f6f6f6"></path><path d="M776 213L798 114L709 160Z" fill="#4689ae" stroke="#4689ae"></path><path d="M527 0L364 0L485 70Z" fill="#297ea6" stroke="#297ea6"></path><path d="M294 109L213 63L211 179Z" fill="#acc4d6" stroke="#acc4d6"></path><path d="M900 386L900 332L829 366Z" fill="#86acc6" stroke="#86acc6"></path><path d="M829 366L900 332L768 302Z" fill="#86acc6" stroke="#86acc6"></path><path d="M900 462L900 386L829 366Z" fill="#86acc6" stroke="#86acc6"></path><path d="M214 468L229 600L276 600Z" fill="#5e95b6" stroke="#5e95b6"></path><path d="M139 600L229 600L214 468Z" fill="#99b8ce" stroke="#99b8ce"></path><path d="M900 332L900 226L768 302Z" fill="#f6f6f6" stroke="#f6f6f6"></path><path d="M900 600L900 462L807 491Z" fill="#f6f6f6" stroke="#f6f6f6"></path><path d="M807 491L900 462L829 366Z" fill="#99b8ce" stroke="#99b8ce"></path><path d="M704 600L830 600L807 491Z" fill="#f6f6f6" stroke="#f6f6f6"></path><path d="M804 0L738 0L798 114Z" fill="#acc4d6" stroke="#acc4d6"></path><path d="M798 114L738 0L691 132Z" fill="#f6f6f6" stroke="#f6f6f6"></path><path d="M364 0L306 0L378 101Z" fill="#297ea6" stroke="#297ea6"></path><path d="M306 0L213 63L294 109Z" fill="#bed0de" stroke="#bed0de"></path><path d="M67 177L82 279L174 267Z" fill="#86acc6" stroke="#86acc6"></path><path d="M900 226L900 122L798 114Z" fill="#acc4d6" stroke="#acc4d6"></path><path d="M900 0L804 0L798 114Z" fill="#297ea6" stroke="#297ea6"></path><path d="M67 177L174 267L211 179Z" fill="#e3e9ee" stroke="#e3e9ee"></path><path d="M174 267L68 372L224 408Z" fill="#72a0be" stroke="#72a0be"></path><path d="M82 279L68 372L174 267Z" fill="#e3e9ee" stroke="#e3e9ee"></path><path d="M830 600L900 600L807 491Z" fill="#f6f6f6" stroke="#f6f6f6"></path><path d="M61 519L139 600L214 468Z" fill="#4689ae" stroke="#4689ae"></path><path d="M306 0L180 0L213 63Z" fill="#5e95b6" stroke="#5e95b6"></path><path d="M74 88L67 177L211 179Z" fill="#297ea6" stroke="#297ea6"></path><path d="M74 88L211 179L213 63Z" fill="#5e95b6" stroke="#5e95b6"></path><path d="M82 279L0 313L68 372Z" fill="#f6f6f6" stroke="#f6f6f6"></path><path d="M0 480L61 519L68 372Z" fill="#acc4d6" stroke="#acc4d6"></path><path d="M68 372L61 519L214 468Z" fill="#bed0de" stroke="#bed0de"></path><path d="M900 122L900 0L798 114Z" fill="#acc4d6" stroke="#acc4d6"></path><path d="M114 0L74 88L213 63Z" fill="#72a0be" stroke="#72a0be"></path><path d="M0 212L82 279L67 177Z" fill="#72a0be" stroke="#72a0be"></path><path d="M0 212L0 313L82 279Z" fill="#5e95b6" stroke="#5e95b6"></path><path d="M0 313L0 390L68 372Z" fill="#4689ae" stroke="#4689ae"></path><path d="M180 0L114 0L213 63Z" fill="#99b8ce" stroke="#99b8ce"></path><path d="M0 84L0 212L67 177Z" fill="#86acc6" stroke="#86acc6"></path><path d="M0 84L67 177L74 88Z" fill="#72a0be" stroke="#72a0be"></path><path d="M0 390L0 480L68 372Z" fill="#bed0de" stroke="#bed0de"></path><path d="M61 519L0 600L139 600Z" fill="#5e95b6" stroke="#5e95b6"></path><path d="M0 480L0 600L61 519Z" fill="#5e95b6" stroke="#5e95b6"></path><path d="M0 0L0 84L74 88Z" fill="#72a0be" stroke="#72a0be"></path><path d="M114 0L0 0L74 88Z" fill="#72a0be" stroke="#72a0be"></path></g></svg>